<?xml version="1.0" encoding="iso-8859-1"?>
<!-- Generator: Adobe Illustrator 18.0.0, SVG Export Plug-In . SVG Version: 6.00 Build 0)  -->
<!DOCTYPE svg PUBLIC "-//W3C//DTD SVG 1.1//EN" "http://www.w3.org/Graphics/SVG/1.1/DTD/svg11.dtd">
<svg xmlns="http://www.w3.org/2000/svg" xmlns:xlink="http://www.w3.org/1999/xlink" version="1.1" id="Capa_1" x="0px" y="0px" viewBox="0 0 424.553 424.553" style="enable-background:new 0 0 424.553 424.553;" xml:space="preserve" width="512px" height="512px">
<g>
	<path d="M125.922,352.279c-12.315,0-22.335,10.019-22.335,22.334s10.02,22.335,22.335,22.335s22.335-10.02,22.335-22.335   S138.238,352.279,125.922,352.279z M125.922,381.948c-4.045,0-7.335-3.291-7.335-7.335s3.29-7.334,7.335-7.334   c4.045,0,7.335,3.29,7.335,7.334S129.967,381.948,125.922,381.948z" fill="#FFFFFF"/>
	<path d="M318.204,367.113h-26.205V232.188c0-28.844-23.466-52.31-52.31-52.31h-68.41c-84.866,0-153.91,69.044-153.91,153.91v40.83   c0,4.142,3.357,7.5,7.5,7.5h51.678c3.631,23.989,24.388,42.435,49.375,42.435s45.743-18.446,49.375-42.435l120.801-0.005v34.94   c0,4.142,3.357,7.5,7.5,7.5s7.5-3.358,7.5-7.5v-34.94h7.106c4.143,0,7.5-3.358,7.5-7.5S322.347,367.113,318.204,367.113z    M125.922,409.553c-19.266,0-34.939-15.674-34.939-34.94c0-19.266,15.674-34.939,34.939-34.939s34.939,15.674,34.939,34.939   C160.862,393.879,145.188,409.553,125.922,409.553z M276.999,367.119H175.298c-3.627-23.994-24.386-42.445-49.376-42.445   s-45.749,18.451-49.376,42.445H32.369v-33.33c0-76.595,62.314-138.91,138.91-138.91h68.41c20.572,0,37.31,16.737,37.31,37.31   V367.119z" fill="#FFFFFF"/>
	<path d="M405.954,317.028l-50.719-77.291h28.7c2.756,0,5.29-1.512,6.6-3.937s1.183-5.373-0.329-7.678l-42.97-65.483h17.938   c2.756,0,5.29-1.512,6.6-3.937s1.183-5.373-0.329-7.678L332.628,91.87h20.082c2.756,0,5.29-1.512,6.6-3.937   s1.183-5.374-0.329-7.678l-50.441-76.87C307.153,1.272,304.796,0,302.269,0s-4.884,1.272-6.271,3.385l-50.441,76.87   c-1.512,2.304-1.639,5.252-0.329,7.678s3.844,3.937,6.6,3.937h20.083l-38.817,59.154c-1.512,2.304-1.639,5.252-0.329,7.678   s3.844,3.937,6.6,3.937h17.938l-2.119,3.23c-2.272,3.463-1.308,8.113,2.156,10.385c3.462,2.272,8.111,1.307,10.385-2.156   l9.741-14.845c1.512-2.304,1.639-5.252,0.329-7.678s-3.844-3.937-6.6-3.937h-17.938l38.817-59.154   c1.512-2.304,1.639-5.252,0.329-7.678s-3.844-3.937-6.6-3.937h-20.083l36.55-55.7l36.55,55.7h-20.082   c-2.756,0-5.29,1.512-6.6,3.937s-1.183,5.374,0.329,7.678l38.816,59.154h-17.938c-2.756,0-5.29,1.512-6.6,3.937   s-1.183,5.374,0.329,7.678l42.97,65.483h-28.7c-2.756,0-5.29,1.512-6.6,3.937s-1.183,5.374,0.329,7.678l50.719,77.291h-76.194   c-4.143,0-7.5,3.358-7.5,7.5s3.357,7.5,7.5,7.5h90.086c2.756,0,5.29-1.512,6.6-3.937S407.466,319.333,405.954,317.028z" fill="#FFFFFF"/>
	<path d="M27.035,248.202c1.269,0.833,2.695,1.23,4.107,1.23c2.442,0,4.837-1.192,6.277-3.386l50.591-77.098   c1.512-2.304,1.639-5.252,0.329-7.678s-3.844-3.937-6.6-3.937H63.803l38.816-59.154c1.512-2.304,1.639-5.252,0.329-7.678   s-3.844-3.937-6.6-3.937H76.267l36.55-55.7l36.55,55.7h-20.083c-2.756,0-5.29,1.512-6.6,3.937s-1.183,5.374,0.329,7.678   l38.817,59.154h-17.938c-4.143,0-7.5,3.358-7.5,7.5s3.357,7.5,7.5,7.5h31.83c2.756,0,5.29-1.512,6.6-3.937s1.183-5.374-0.329-7.678   l-38.817-59.154h20.083c2.756,0,5.29-1.512,6.6-3.937s1.183-5.374-0.329-7.678l-50.441-76.87c-1.387-2.113-3.743-3.385-6.271-3.385   s-4.884,1.272-6.271,3.385l-50.441,76.87c-1.512,2.304-1.639,5.252-0.329,7.678s3.844,3.937,6.6,3.937h20.082l-38.816,59.154   c-1.512,2.305-1.639,5.252-0.329,7.678s3.844,3.937,6.6,3.937h17.937l-42.97,65.483C22.607,241.28,23.572,245.929,27.035,248.202z" fill="#FFFFFF"/>
	<path d="M168.605,226.562h-49.497c-28.12,0-50.998,22.877-50.998,50.998c0,4.142,3.357,7.5,7.5,7.5h92.995   c4.143,0,7.5-3.358,7.5-7.5v-43.498C176.105,229.92,172.747,226.562,168.605,226.562z M161.105,270.06H83.896   c3.459-16.262,17.934-28.498,35.212-28.498h41.997V270.06z" fill="#FFFFFF"/>
	<path d="M255.601,226.562h-53.564c-4.143,0-7.5,3.358-7.5,7.5v108.527c0,4.142,3.357,7.5,7.5,7.5h53.564c4.143,0,7.5-3.358,7.5-7.5   V234.062C263.101,229.92,259.743,226.562,255.601,226.562z M248.101,335.089h-38.564v-93.527h38.564V335.089z" fill="#FFFFFF"/>
</g>
<g>
</g>
<g>
</g>
<g>
</g>
<g>
</g>
<g>
</g>
<g>
</g>
<g>
</g>
<g>
</g>
<g>
</g>
<g>
</g>
<g>
</g>
<g>
</g>
<g>
</g>
<g>
</g>
<g>
</g>
</svg>
